<?xml version="1.0" encoding="UTF-8" standalone="no"?>
<svg width="98px" height="96px" viewBox="0 0 98 96" version="1.1" xmlns="http://www.w3.org/2000/svg" xmlns:xlink="http://www.w3.org/1999/xlink">
    <title>GitHub Logo</title>
    <g stroke="none" stroke-width="1" fill="none" fill-rule="evenodd">
        <g fill="#FFFFFF">
            <path d="M48.854,0 C21.839,0 0,22 0,49.217 C0,70.973 13.993,89.389 33.405,95.907 C35.832,96.399 36.721,94.829 36.721,93.464 C36.721,92.225 36.665,89.032 36.665,84.954 C24.56,87.521 21.307,83.299 20.305,80.508 C19.777,79.109 17.405,74.685 15.322,73.447 C13.595,72.442 11.169,69.875 15.267,69.819 C19.141,69.763 21.901,73.51 22.815,74.965 C27.243,82.589 34.286,80.733 36.94,79.368 C37.382,76.133 38.661,73.905 40.051,72.665 C29.176,71.425 17.825,67.087 17.825,47.812 C17.825,42.33 19.722,37.796 22.925,34.286 C22.429,33.035 20.751,27.851 23.45,20.9 C23.45,20.9 27.572,19.591 36.721,26.115 C40.62,24.97 44.792,24.397 48.964,24.397 C53.136,24.397 57.308,24.97 61.207,26.115 C70.357,19.535 74.478,20.9 74.478,20.9 C77.178,27.851 75.499,33.035 75.003,34.286 C78.207,37.796 80.103,42.274 80.103,47.812 C80.103,67.143 68.697,71.425 57.821,72.665 C59.653,74.247 61.207,77.369 61.207,82.141 C61.207,88.9 61.152,91.801 61.152,93.464 C61.152,94.829 62.04,96.399 64.467,95.907 C83.88,89.389 97.873,70.973 97.873,49.217 C97.873,22 76.034,0 48.854,0"></path>
        </g>
    </g>
</svg> 